<svg xmlns="http://www.w3.org/2000/svg" viewBox="0 0 64 64">
  <defs>
    <linearGradient id="g" x1="0" y1="0" x2="1" y2="1">
      <stop offset="0%" stop-color="#2563eb"/>
      <stop offset="100%" stop-color="#22d3ee"/>
    </linearGradient>
  </defs>
  <rect width="64" height="64" rx="12" fill="url(#g)"/>
  <path d="M18 22h20a2 2 0 0 1 2 2v20a2 2 0 0 1-2 2H18a2 2 0 0 1-2-2V24a2 2 0 0 1 2-2z" fill="#0b1021" opacity="0.9"/>
  <path d="M24 20v-4a2 2 0 0 1 2-2h20a2 2 0 0 1 2 2v20a2 2 0 0 1-2 2h-4" stroke="#e2e8f0" stroke-width="4" fill="none" stroke-linecap="round" stroke-linejoin="round"/>
  <path d="M22 30h12M22 36h16M22 42h10" stroke="#e2e8f0" stroke-width="3" stroke-linecap="round"/>
</svg>
